<svg height="512pt" viewBox="0 0 512.00028 512" width="512pt" xmlns="http://www.w3.org/2000/svg"><path d="m267.351562 279.679688-35.027343-35.027344 42.191406-42.1875c-37.988281-29.734375-79.847656-38.316406-110.15625-8.003906-11.671875 11.667968-18.871094 26.351562-21.757813 42.304687-4.0625 22.449219-23.46875 40.371094-45.988281 42.269531-24.257812 2.042969-47.316406 11.898438-65.175781 29.757813-43.101562 43.097656-23.589844 100.492187 23.84375 147.925781 47.4375 47.433594 104.832031 66.949219 147.929688 23.847656 17.859374-17.855468 27.714843-40.917968 29.757812-65.175781 1.898438-22.519531 19.820312-41.925781 42.269531-45.988281 15.953125-2.886719 30.636719-10.089844 42.308594-21.757813 30.308594-30.308593 21.726563-72.167969-8.007813-110.15625zm0 0" fill="#ef5350"/><path d="m309.539062 237.488281-18.171874 18.171875c9.335937 26.089844 6.523437 51.640625-13.820313 71.984375-11.671875 11.671875-26.355469 18.871094-42.308594 21.757813-22.449219 4.0625-40.371093 23.46875-42.269531 45.992187-2.042969 24.257813-11.898438 47.316407-29.757812 65.171875-23.570313 23.574219-51.417969 28.417969-79.578126 20.207032 40.667969 28.570312 84.78125 34.589843 119.578126-.207032 17.859374-17.855468 27.714843-40.917968 29.757812-65.175781 1.898438-22.519531 19.820312-41.925781 42.269531-45.988281 15.953125-2.886719 30.632813-10.089844 42.304688-21.757813 30.308593-30.308593 21.730469-72.167969-8.003907-110.15625zm0 0" fill="#d32f2f"/><path d="m395.484375 81.488281 35.027344 35.023438-163.164063 163.160156-35.023437-35.023437zm0 0" fill="#757575"/><path d="m231.007812 280.992188c-18.070312-18.070313-47.367187-18.070313-65.4375 0-18.070312 18.070312-18.070312 47.367187 0 65.433593 18.070313 18.070313 47.367188 18.070313 65.4375 0 18.066407-18.066406 18.066407-47.363281 0-65.433593zm0 0" fill="#42a5f5"/><path d="m231.007812 280.992188c-18.070312-18.070313-47.367187-18.070313-65.4375 0-18.070312 18.070312-18.070312 47.367187 0 65.433593 18.070313 18.070313 47.367188 18.070313 65.4375 0 18.066407-18.066406 18.066407-47.363281 0-65.433593zm0 0" fill="#424242"/><path d="m107.675781 334.789062 69.535157 69.535157-19.285157 19.285156-69.535156-69.535156zm0 0" fill="#ffa000"/><path d="m454.671875 7.503906-59.070313 59.066406-.113281 14.921876 35.023438 35.023437 14.921875-.117187 59.066406-59.066407c-9.941406-22.15625-27.671875-39.886719-49.828125-49.828125zm0 0" fill="#ffa000"/><path d="m48.332031 41.625v105.195312c-2.847656-.835937-5.859375-1.292968-8.976562-1.292968-17.585938 0-31.835938 14.25-31.835938 31.832031s14.253907 31.835937 31.835938 31.835937c17.578125 0 31.832031-14.253906 31.832031-31.835937v-102.746094l81.628906-21.871093v59.957031c-2.847656-.835938-5.859375-1.292969-8.976562-1.292969-17.585938 0-31.835938 14.253906-31.835938 31.832031 0 17.582031 14.253906 31.835938 31.835938 31.835938 17.578125 0 31.832031-14.253907 31.832031-31.835938v-135.734375zm0 0" fill="#ffca28"/><path d="m238.417969 337.96875c3.84375 1.550781 8.210937-.3125 9.757812-4.15625 8.0625-20.035156 3.410157-42.851562-11.863281-58.125-20.964844-20.960938-55.078125-20.960938-76.042969 0-20.964843 20.96875-20.964843 55.078125 0 76.042969 15.53125 15.53125 39.582031 20.164062 59.921875 11.101562 3.785156-1.6875 5.484375-6.117187 3.796875-9.902343-1.6875-3.78125-6.117187-5.484376-9.902343-3.796876-14.566407 6.492188-31.929688 3.273438-43.207032-8.007812-15.117187-15.117188-15.117187-39.710938 0-54.828125 15.117188-15.117187 39.710938-15.117187 54.828125 0 11.011719 11.011719 14.371094 27.464844 8.554688 41.914063-1.546875 3.84375.3125 8.210937 4.15625 9.757812zm0 0"/><path d="m102.371094 329.492188-19.285156 19.285156c-2.929688 2.929687-2.929688 7.675781 0 10.605468l69.535156 69.535157c2.925781 2.925781 7.675781 2.925781 10.605468-.003907l19.285157-19.28125c2.929687-2.929687 2.929687-7.679687 0-10.609374l-69.535157-69.53125c-2.925781-2.929688-7.675781-2.929688-10.605468 0zm55.554687 83.515624-58.929687-58.929687 8.679687-8.679687 58.925781 58.929687zm0 0"/><path d="m511.34375 54.261719c-10.707031-23.859375-29.742188-42.894531-53.601562-53.601563-2.839844-1.273437-6.171876-.660156-8.375 1.539063l-9.003907 9.003906-6.523437-6.523437c-2.925782-2.929688-7.675782-2.929688-10.605469-.003907-2.929687 2.929688-2.929687 7.679688 0 10.609375l6.523437 6.523438-6.089843 6.089844-6.523438-6.523438c-2.929687-2.929688-7.675781-2.929688-10.605469 0-2.929687 2.929688-2.929687 7.675781 0 10.605469l6.523438 6.523437-6.089844 6.089844-6.523437-6.523438c-2.929688-2.925781-7.679688-2.925781-10.605469.003907-2.929688 2.925781-2.929688 7.675781 0 10.605469l6.523438 6.523437-6.066407 6.0625c-1.390625 1.394531-2.179687 3.277344-2.195312 5.246094l-.09375 11.847656-114.203125 114.203125c-19.027344-13.804688-38.429688-22.109375-56.4375-24.074219-42.917969-4.671875-75.082032 27.882813-82.152344 66.941407-3.496094 19.3125-19.996094 34.507812-39.238281 36.128906-27.089844 2.285156-51.242188 13.328125-69.847657 31.929687-24.882812 24.886719-32.179687 56.089844-21.097656 90.238281 1.273438 3.925782 5.492188 6.097657 9.449219 4.816407 3.9375-1.277344 6.09375-5.507813 4.816406-9.449219-9.359375-28.835938-3.492187-54.070312 17.4375-75 16.066407-16.0625 36.988281-25.605469 60.5-27.585938 25.878907-2.183593 48.058594-22.539062 52.742188-48.40625 2.695312-14.902343 9.5-28.160156 19.679687-38.339843 31.566406-31.570313 72.015625-11.367188 93.394532 3.554687l-36.035157 36.03125c-2.925781 2.929688-2.925781 7.679688 0 10.605469l35.027344 35.027344c2.925781 2.925781 7.675781 2.925781 10.605469 0l36.03125-36.035157c14.921875 21.378907 35.121094 61.828126 3.554687 93.394532-10.179687 10.179687-23.4375 16.988281-38.335937 19.683594-25.871094 4.679687-46.226563 26.859374-48.410156 52.738281-1.980469 23.515625-11.519532 44.4375-27.585938 60.5-41.441406 41.445312-95.464844 18.011719-137.320312-23.847657-10.664063-10.65625-19.679688-21.644531-26.804688-32.660156-2.25-3.476562-6.894531-4.472656-10.371094-2.222656-3.476562 2.25-4.472656 6.894531-2.222656 10.371094 21.644531 33.457031 64.414062 73.796875 108.132812 83.027344 30.421876 6.425781 57.640626-2.507813 79.191407-24.0625 18.605469-18.601563 29.644531-42.757813 31.929687-69.847657 1.621094-19.242187 16.816406-35.742187 36.128906-39.238281 39.085938-7.074219 71.625-39.230469 66.941407-82.148438-1.964844-18.011718-10.269531-37.414062-24.074219-56.441406 16.34375-16.34375 95.800781-95.800781 114.203125-114.203125l11.847656-.089843c1.96875-.015626 3.851563-.804688 5.246094-2.195313l6.0625-6.066406 6.527344 6.523437c2.925781 2.929688 7.675781 2.929688 10.605469 0 2.925781-2.929687 2.925781-7.679687 0-10.605468l-6.523438-6.523438 6.089844-6.089844 6.523437 6.523438c2.925781 2.925781 7.675781 2.929687 10.605469 0 2.929688-2.929688 2.929688-7.679688 0-10.605469l-6.523438-6.527344 6.089844-6.089843 6.523438 6.523437c2.925781 2.929687 7.675781 2.929687 10.605468.003906 2.929688-2.929687 2.929688-7.679687 0-10.609375l-6.523437-6.523437 9.003906-9.003907c2.203125-2.199218 2.816407-5.53125 1.542969-8.371093zm-107.96875 78.785156-24.421875-24.417969 16.535156-16.53125 24.417969 24.417969zm-27.140625 27.140625-24.417969-24.421875 16.53125-16.53125 24.421875 24.417969zm-27.136719 27.136719-24.417968-24.417969 16.53125-16.53125 24.417968 24.417969zm-27.140625 27.140625-24.417969-24.417969 16.53125-16.535156 24.421876 24.417969zm-27.136719 27.136718-24.417968-24.417968 16.53125-16.53125 24.417968 24.417968zm-27.46875 27.46875-24.421874-24.417968 16.867187-16.863282 24.417969 24.417969zm174.949219-160.144531-8.707031.066407-30.582031-30.585938.066406-8.707031c6.191406-6.1875 46.703125-46.699219 53.132813-53.128907 16.828124 8.707032 30.515624 22.390626 39.222656 39.222657-6.324219 6.324219-46.382813 46.382812-53.132813 53.132812zm0 0"/><path d="m39.355469 216.695312c21.6875 0 39.332031-17.644531 39.332031-39.332031v-96.996093l66.628906-17.851563v41.417969c-22.246094-.839844-40.8125 17.03125-40.8125 39.308594 0 21.6875 17.644532 39.332031 39.335938 39.332031 21.6875 0 39.332031-17.644531 39.332031-39.332031v-42.386719c0-4.140625-3.355469-7.5-7.5-7.5-4.140625 0-7.5 3.359375-7.5 7.5v42.386719c0 13.417968-10.914063 24.332031-24.332031 24.332031-13.421875 0-24.335938-10.914063-24.335938-24.332031 0-16.179688 15.582032-27.929688 31.203125-23.347657 4.792969 1.40625 9.609375-2.191406 9.609375-7.195312v-59.957031c0-4.933594-4.691406-8.523438-9.441406-7.246094l-81.628906 21.875c-3.277344.875-5.558594 3.847656-5.558594 7.242187v102.75c0 13.417969-10.914062 24.332031-24.332031 24.332031-13.421875 0-24.335938-10.914062-24.335938-24.332031 0-16.179687 15.582031-27.929687 31.203125-23.347656 4.792969 1.40625 9.609375-2.191406 9.609375-7.195313v-99.441406l112.34375-30.101562v48.582031c0 4.140625 3.355469 7.496094 7.5 7.496094 4.140625 0 7.496094-3.355469 7.496094-7.496094v-58.355469c0-4.925781-4.679687-8.519531-9.4375-7.242187l-127.34375 34.117187c-3.277344.878906-5.558594 3.851563-5.558594 7.246094v96.429688c-22.25-.835938-40.8124998 17.035156-40.8124998 39.308593 0 21.6875 17.6445308 39.332031 39.3359378 39.332031zm0 0"/><path d="m461.144531 34.054688c-2.929687-2.925782-7.675781-2.925782-10.605469 0l-33.601562 33.605468c-2.929688 2.929688-2.929688 7.675782 0 10.605469s7.679688 2.925781 10.605469 0l33.601562-33.601563c2.929688-2.929687 2.929688-7.675781 0-10.609374zm0 0"/><path d="m477.945312 50.855469c-2.929687-2.925781-7.675781-2.925781-10.605468 0l-33.601563 33.601562c-2.929687 2.933594-2.929687 7.679688 0 10.609375 2.929688 2.929688 7.675781 2.925782 10.605469 0l33.601562-33.601562c2.929688-2.929688 2.929688-7.679688 0-10.609375zm0 0"/></svg>